<?xml version="1.0" encoding="UTF-8"?>
<svg width="103" height="123" version="1.1" viewBox="0 0 103 123" xmlns="http://www.w3.org/2000/svg" xmlns:cc="http://creativecommons.org/ns#" xmlns:dc="http://purl.org/dc/elements/1.1/" xmlns:rdf="http://www.w3.org/1999/02/22-rdf-syntax-ns#">
 <title>graphql-server-logo</title>
 <path d="m60.7 5.18v10.6l-42.9 25.4v40.4l-8.86 5.14v-50.8z" fill="#f25f3f"/>
 <path d="m103 81.5-8.8-5.17-42.7 24.8-33.6-19.7-8.93 5.26 33.6 20.1 8.9 5.54z" fill="#ffaa5b"/>
 <path d="m103 30.7-9.13-5.09-51.6 30.5 8.9 5.54z" fill="#ffaa5b"/>
 <path d="m85.6 41.4v40l9.02 5.14v-43.2l-9.02-1.94" fill="#eb1919"/>
 <g transform="translate(-23.9 -7.32)">
  <path d="m84.4 12.6-8.9-5.24-51.6 30.5 8.9 5.54z" fill="#ffaa5b"/>
  <path d="m23.9 37.8 9.01 5.36v50.9l43 25.3v10.7l-52-31.1z" fill="#eb1919"/>
  <path d="m75.6 130v-10.6l42.9-25.7v-40l-42.9 25.5v-10.5l51.7-30.8v61.4z" fill="#f25f3f"/>
 </g>
 <path d="m42.9 56v10.6l8.83 5.29v-10.5z" fill="#eb1919"/>
 <metadata>
  <rdf:RDF>
   <cc:Work rdf:about="">
    <dc:title>graphql-server-logo</dc:title>
   </cc:Work>
  </rdf:RDF>
 </metadata>
</svg>
